<?xml version="1.0" encoding="UTF-8" standalone="no"?>
<!-- Created with Inkscape (http://www.inkscape.org/) -->
<svg xmlns:dc="http://purl.org/dc/elements/1.1/" xmlns:cc="http://creativecommons.org/ns#" xmlns:rdf="http://www.w3.org/1999/02/22-rdf-syntax-ns#" xmlns:svg="http://www.w3.org/2000/svg" xmlns="http://www.w3.org/2000/svg" xmlns:sodipodi="http://sodipodi.sourceforge.net/DTD/sodipodi-0.dtd" xmlns:inkscape="http://www.inkscape.org/namespaces/inkscape" version="1.0" width="368" height="369" viewBox="0 0 395.833 349" id="svg2" sodipodi:version="0.32" inkscape:version="0.46" sodipodi:docname="20080623160710!Keep_tidy_ask.svg" inkscape:output_extension="org.inkscape.output.svg.inkscape">
  <metadata id="metadata23">
    <rdf:RDF>
      <cc:Work rdf:about="">
        <dc:format>image/svg+xml</dc:format>
        <dc:type rdf:resource="http://purl.org/dc/dcmitype/StillImage"/>
      </cc:Work>
    </rdf:RDF>
  </metadata>
  <sodipodi:namedview inkscape:window-height="669" inkscape:window-width="640" inkscape:pageshadow="2" inkscape:pageopacity="0.0" guidetolerance="10.0" gridtolerance="10.0" objecttolerance="10.0" borderopacity="1.0" bordercolor="#666666" pagecolor="#ffffff" id="base" showgrid="false" inkscape:zoom="1.2520325" inkscape:cx="184" inkscape:cy="184.5" inkscape:window-x="92" inkscape:window-y="63" inkscape:current-layer="Layer_1"/>
  <defs id="defs40">
    <inkscape:perspective sodipodi:type="inkscape:persp3d" inkscape:vp_x="0 : 184.5 : 1" inkscape:vp_y="0 : 1000 : 0" inkscape:vp_z="368 : 184.5 : 1" inkscape:persp3d-origin="184 : 123 : 1" id="perspective25"/>
  </defs>
  <g transform="matrix(1.07563, 0, 0, 1.07563, -40.6944, -13.1979)" id="Layer_1">
    <g id="g2398">
      <path id="path9" d="M 286.333,53.5 C 286.333,67.307 274.469,78.5 259.833,78.5 C 245.197,78.5 233.333,67.307 233.333,53.5 C 233.333,39.693 245.197,28.5 259.833,28.5 C 274.469,28.5 286.333,39.693 286.333,53.5 z "/>
      <path id="path11" d="M 113.833,173 C 114.888,179.355 133.666,301.917 133.666,301.917 L 202,301.917 C 202,301.917 215.605,176.893 215.833,173 C 222.057,172.378 223.5,167 214.833,167 C 202.669,167 125.628,166.941 116.833,167 C 108.038,167.059 109,172.487 113.833,173 z "/>
      <path id="path13" d="M 126.333,141.5 C 143.625,136.175 150.512,117.968 153.333,110.5 C 167.846,117.096 193.666,122.765 212.333,118.5 C 216.016,137.919 184.29,137.81 189.333,155.5 C 180.911,146.205 137.737,167.792 126.333,141.5 z "/>
      <path id="path15" d="M 151.333,82.5 L 290.333,81.5 C 289.733,84.921 323.966,138.997 319.333,148.5 C 315.244,148.918 252.333,153.5 252.333,153.5 C 258.442,144.121 239.333,110.5 239.333,110.5 L 151.333,82.5 z "/>
      <path id="path17" d="M 318.333,156.5 L 252.333,153.5 C 252.333,153.5 228.768,296.855 228.333,298.5 C 227.898,300.145 230.188,301.036 231.333,299.5 C 232.478,297.964 282.333,217.5 282.333,217.5 C 282.333,217.5 302.087,298.201 302.333,299.5 C 302.579,300.799 306.054,300.709 306.333,299.5 C 306.612,298.291 318.333,156.5 318.333,156.5 z "/>
      <path id="path19" style="fill: white; stroke: black;" d="M 136.857,297.945 L 198.356,297.945 C 198.356,297.945 217.256,172.47 209.457,172.47 C 207.632,172.47 123.015,172.458 121.257,172.47 C 113.342,172.523 136.857,297.945 136.857,297.945 z "/>
      <path id="path21" style="fill: rgb(23, 137, 229);" d=""/>
      <path id="path23" d="M 169.491,298.499 L 164.176,298.499 L 164.176,171.166 L 169.491,171.166 L 169.491,298.499 z "/>
      <path id="path25" d="M 189.59,298.87 L 184.541,298.461 L 192.913,171.116 L 197.962,171.525 L 189.59,298.87 z "/>
      <path id="path27" d="M 144.912,299.203 L 149.961,298.794 L 141.589,171.449 L 136.541,171.858 L 144.912,299.203 z "/>
      <g id="g29">
        <path id="path31" d="M 213.168,191.686 L 213.168,197.311 L 118.834,197.311 L 118.834,191.686 L 213.168,191.686 z "/>
        <path id="path33" d="M 209.834,219.02 L 209.834,224.645 L 123.167,224.645 L 123.167,219.02 L 209.834,219.02 z "/>
        <path id="path35" d="M 206.833,245.02 L 206.833,250.645 L 126.5,250.645 L 126.5,245.02 L 206.833,245.02 z "/>
        <path id="path37" d="M 203.5,271.02 L 203.5,276.645 L 130.5,276.645 L 130.5,271.02 L 203.5,271.02 z "/>
      </g>
    </g>
  </g>
  <path d="M 109.2105,116.25902 C 109.21044,119.61868 108.71981,122.58744 107.7386,125.1653 C 106.75727,127.74326 105.36853,129.98022 103.57236,131.87619 C 101.77608,133.77224 99.62228,135.46867 97.110942,136.96549 C 94.599513,138.46237 91.763811,139.82617 88.603829,141.05689 L 88.603829,152.43297 L 71.040756,152.43297 L 71.040756,135.61832 C 73.402435,134.98635 75.539606,134.33772 77.452275,133.67241 C 79.364893,133.00718 81.36901,131.92612 83.464634,130.42923 C 85.427141,129.09874 86.965571,127.55199 88.07993,125.78899 C 89.194216,124.02608 89.751378,122.03027 89.751416,119.80158 C 89.751378,116.47529 88.678634,114.10528 86.533182,112.69153 C 84.387661,111.27789 81.36901,110.57105 77.477223,110.57098 C 75.082235,110.57105 72.379587,111.08663 69.36927,112.11773 C 66.358918,113.14896 63.606375,114.47949 61.111632,116.10934 L 59.115829,116.10934 L 59.115829,100.89134 C 61.244676,99.993296 64.521118,99.053606 68.945162,98.072263 C 73.369172,97.091068 77.859726,96.600434 82.416837,96.600358 C 90.632857,96.600434 97.152476,98.413287 101.97571,102.03892 C 106.79885,105.6647 109.21044,110.40473 109.2105,116.25902 L 109.2105,116.25902 z M 90.000891,172.391 L 69.843274,172.391 L 69.843274,159.2187 L 90.000891,159.2187 L 90.000891,172.391 z " transform="translate(8.60506, -49.4792)" style="font-size: 102.185px; font-style: normal; font-variant: normal; font-weight: bold; font-stretch: normal; text-align: start; line-height: 125%; text-anchor: start; font-family: Verdana;" id="flowRoot1885"/>
</svg>